<svg width="72" height="73" viewBox="0 0 72 73" fill="none" xmlns="http://www.w3.org/2000/svg">
<g filter="url(#filter0_d_234_359)">
<path d="M5.42775 36.604C5.42775 33.276 6.14775 30.316 7.58775 27.724C9.02775 25.1 11.0278 23.068 13.5878 21.628C16.1798 20.156 19.1078 19.42 22.3718 19.42C26.3718 19.42 29.7958 20.476 32.6438 22.588C35.4918 24.7 37.3958 27.58 38.3558 31.228H29.3318C28.6598 29.82 27.6998 28.748 26.4518 28.012C25.2358 27.276 23.8438 26.908 22.2758 26.908C19.7478 26.908 17.6998 27.788 16.1318 29.548C14.5638 31.308 13.7798 33.66 13.7798 36.604C13.7798 39.548 14.5638 41.9 16.1318 43.66C17.6998 45.42 19.7478 46.3 22.2758 46.3C23.8438 46.3 25.2358 45.932 26.4518 45.196C27.6998 44.46 28.6598 43.388 29.3318 41.98H38.3558C37.3958 45.628 35.4918 48.508 32.6438 50.62C29.7958 52.7 26.3718 53.74 22.3718 53.74C19.1078 53.74 16.1798 53.02 13.5878 51.58C11.0278 50.108 9.02775 48.076 7.58775 45.484C6.14775 42.892 5.42775 39.932 5.42775 36.604ZM64.5023 19.804V42.748C64.5023 46.3 63.4943 49.036 61.4783 50.956C59.4943 52.876 56.8063 53.836 53.4143 53.836C49.8623 53.836 47.0143 52.828 44.8703 50.812C42.7263 48.796 41.6543 45.932 41.6543 42.22H49.8143C49.8143 43.628 50.1023 44.7 50.6783 45.436C51.2543 46.14 52.0863 46.492 53.1743 46.492C54.1663 46.492 54.9343 46.172 55.4783 45.532C56.0223 44.892 56.2943 43.964 56.2943 42.748V19.804H64.5023Z" fill="#3066BE"/>
</g>
<defs>
<filter id="filter0_d_234_359" x="-5" y="-2.5" width="82" height="82" filterUnits="userSpaceOnUse" color-interpolation-filters="sRGB">
<feFlood flood-opacity="0" result="BackgroundImageFix"/>
<feColorMatrix in="SourceAlpha" type="matrix" values="0 0 0 0 0 0 0 0 0 0 0 0 0 0 0 0 0 0 127 0" result="hardAlpha"/>
<feOffset dy="2"/>
<feGaussianBlur stdDeviation="2.5"/>
<feComposite in2="hardAlpha" operator="out"/>
<feColorMatrix type="matrix" values="0 0 0 0 0.705882 0 0 0 0 0.772549 0 0 0 0 0.894118 0 0 0 1 0"/>
<feBlend mode="normal" in2="BackgroundImageFix" result="effect1_dropShadow_234_359"/>
<feBlend mode="normal" in="SourceGraphic" in2="effect1_dropShadow_234_359" result="shape"/>
</filter>
</defs>
</svg>
