<svg width="33" height="32" viewBox="0 0 33 32" fill="none" xmlns="http://www.w3.org/2000/svg">
<path d="M6.45923 19.2929C6.06871 19.6834 6.06871 20.3166 6.45923 20.7071C6.84976 21.0976 7.48292 21.0976 7.87345 20.7071L6.45923 19.2929ZM16.4997 10.6667L17.2068 9.95956C17.0192 9.77202 16.7649 9.66667 16.4997 9.66667C16.2345 9.66667 15.9801 9.77202 15.7926 9.95956L16.4997 10.6667ZM25.1259 20.7071C25.5164 21.0976 26.1496 21.0976 26.5401 20.7071C26.9306 20.3166 26.9306 19.6834 26.5401 19.2929L25.1259 20.7071ZM7.87345 20.7071L17.2068 11.3738L15.7926 9.95956L6.45923 19.2929L7.87345 20.7071ZM15.7926 11.3738L25.1259 20.7071L26.5401 19.2929L17.2068 9.95956L15.7926 11.3738Z" fill="black" fill-opacity="0.35"/>
</svg>
