<svg width="33" height="32" viewBox="0 0 33 32" fill="none" xmlns="http://www.w3.org/2000/svg">
<path d="M26.5408 12.7071C26.9313 12.3166 26.9313 11.6834 26.5408 11.2929C26.1502 10.9024 25.5171 10.9024 25.1266 11.2929L26.5408 12.7071ZM16.5003 21.3333L15.7932 22.0404C15.9808 22.228 16.2351 22.3333 16.5003 22.3333C16.7655 22.3333 17.0199 22.228 17.2074 22.0404L16.5003 21.3333ZM7.8741 11.2929C7.48357 10.9024 6.85041 10.9024 6.45989 11.2929C6.06936 11.6834 6.06936 12.3166 6.45989 12.7071L7.8741 11.2929ZM25.1266 11.2929L15.7932 20.6262L17.2074 22.0404L26.5408 12.7071L25.1266 11.2929ZM17.2074 20.6262L7.8741 11.2929L6.45989 12.7071L15.7932 22.0404L17.2074 20.6262Z" fill="#3066BE"/>
</svg>
