<svg width="33" height="32" viewBox="0 0 33 32" fill="none" xmlns="http://www.w3.org/2000/svg">
<path d="M15.7926 19.2929C15.402 19.6834 15.402 20.3166 15.7926 20.7071C16.1831 21.0976 16.8163 21.0976 17.2068 20.7071L15.7926 19.2929ZM20.4997 16L21.2068 16.7071C21.5973 16.3166 21.5973 15.6834 21.2068 15.2929L20.4997 16ZM17.2068 11.2929C16.8163 10.9024 16.1831 10.9024 15.7926 11.2929C15.402 11.6834 15.402 12.3166 15.7926 12.7071L17.2068 11.2929ZM5.83301 15C5.28072 15 4.83301 15.4477 4.83301 16C4.83301 16.5523 5.28072 17 5.83301 17L5.83301 15ZM17.2068 20.7071L21.2068 16.7071L19.7926 15.2929L15.7926 19.2929L17.2068 20.7071ZM21.2068 15.2929L17.2068 11.2929L15.7926 12.7071L19.7926 16.7071L21.2068 15.2929ZM5.83301 17L20.4997 17L20.4997 15L5.83301 15L5.83301 17Z" fill="black"/>
<path d="M5.83301 9.33333V6.66666C5.83301 5.93028 6.42996 5.33333 7.16634 5.33333H25.833C26.5694 5.33333 27.1663 5.93028 27.1663 6.66666V25.3333C27.1663 26.0697 26.5694 26.6667 25.833 26.6667H7.16634C6.42996 26.6667 5.83301 26.0697 5.83301 25.3333V22.6667" stroke="black" stroke-width="2" stroke-linecap="round" stroke-linejoin="round"/>
</svg>
