<svg width="32" height="32" viewBox="0 0 32 32" fill="none" xmlns="http://www.w3.org/2000/svg">
<path d="M26.211 12.9349L16.8777 4.76825C16.375 4.32839 15.6244 4.32839 15.1217 4.76825L5.78833 12.9349C5.49898 13.1881 5.33301 13.5539 5.33301 13.9384V25.3333C5.33301 26.0697 5.92996 26.6667 6.66634 26.6667H11.9997C12.7361 26.6667 13.333 26.0697 13.333 25.3333V20C13.333 19.2636 13.93 18.6667 14.6663 18.6667H17.333C18.0694 18.6667 18.6663 19.2636 18.6663 20V25.3333C18.6663 26.0697 19.2633 26.6667 19.9997 26.6667H25.333C26.0694 26.6667 26.6663 26.0697 26.6663 25.3333V13.9384C26.6663 13.5539 26.5004 13.1881 26.211 12.9349Z" stroke="#3066BE" stroke-width="2" stroke-linecap="round" stroke-linejoin="round"/>
</svg>
