<svg width="33" height="32" viewBox="0 0 33 32" fill="none" xmlns="http://www.w3.org/2000/svg">
<path d="M9.83301 26.6667C9.83301 24.4575 12.8178 22.6667 16.4997 22.6667C20.1816 22.6667 23.1663 24.4575 23.1663 26.6667" stroke="#3066BE" stroke-width="2" stroke-linecap="round" stroke-linejoin="round"/>
<path d="M24.5 18.9994C26.8545 19.6166 28.5 21.0263 28.5 22.6665" stroke="#3066BE" stroke-width="2" stroke-linecap="round" stroke-linejoin="round"/>
<path d="M8.5 18.9994C6.14546 19.6166 4.5 21.0263 4.5 22.6665" stroke="#3066BE" stroke-width="2" stroke-linecap="round" stroke-linejoin="round"/>
<path d="M16.5 18.6667C18.7091 18.6667 20.5 16.8758 20.5 14.6667C20.5 12.4575 18.7091 10.6667 16.5 10.6667C14.2909 10.6667 12.5 12.4575 12.5 14.6667C12.5 16.8758 14.2909 18.6667 16.5 18.6667Z" stroke="#3066BE" stroke-width="2" stroke-linecap="round" stroke-linejoin="round"/>
<path d="M24.5003 13.6481C25.3187 12.9157 25.8337 11.8513 25.8337 10.6667C25.8337 8.45752 24.0428 6.66666 21.8337 6.66666C20.8092 6.66666 19.8747 7.05179 19.167 7.68518" stroke="#3066BE" stroke-width="2" stroke-linecap="round" stroke-linejoin="round"/>
<path d="M8.50033 13.6481C7.68199 12.9157 7.16699 11.8513 7.16699 10.6667C7.16699 8.45752 8.95785 6.66666 11.167 6.66666C12.1915 6.66666 13.126 7.05179 13.8337 7.68518" stroke="#3066BE" stroke-width="2" stroke-linecap="round" stroke-linejoin="round"/>
</svg>
