<svg width="32" height="32" viewBox="0 0 32 32" fill="none" xmlns="http://www.w3.org/2000/svg">
<path d="M16 26.6667C16 26.6667 4 19.9833 4 11.9631C4 3.94297 13.3333 3.27462 16 9.54961C18.6667 3.27462 28 3.94297 28 11.9631C28 19.9833 16 26.6667 16 26.6667Z" fill="#FF8181"/>
<path d="M16 26.6667L15.5134 27.5403C15.8159 27.7088 16.1841 27.7088 16.4866 27.5403L16 26.6667ZM16 9.54961L15.0797 9.94072C15.2365 10.3099 15.5989 10.5496 16 10.5496C16.4011 10.5496 16.7635 10.3099 16.9203 9.94072L16 9.54961ZM3 11.9631C3 16.4389 6.31031 20.3739 9.33471 23.069C10.8787 24.4449 12.4181 25.5591 13.5693 26.3285C14.1459 26.7138 14.6276 27.0143 14.9669 27.2195C15.1367 27.3222 15.271 27.4011 15.364 27.455C15.4105 27.4819 15.4467 27.5026 15.4719 27.5169C15.4844 27.524 15.4942 27.5295 15.5012 27.5335C15.5047 27.5354 15.5074 27.537 15.5095 27.5381C15.5105 27.5387 15.5113 27.5391 15.512 27.5395C15.5123 27.5397 15.5127 27.5399 15.5129 27.54C15.5132 27.5402 15.5134 27.5403 16 26.6667C16.4866 25.793 16.4867 25.7931 16.4869 25.7932C16.4869 25.7932 16.4869 25.7932 16.4869 25.7932C16.4868 25.7932 16.4866 25.793 16.4861 25.7928C16.4853 25.7923 16.4837 25.7914 16.4814 25.7901C16.4768 25.7875 16.4694 25.7834 16.4593 25.7776C16.439 25.7661 16.4078 25.7483 16.3665 25.7243C16.2837 25.6764 16.1602 25.6039 16.0018 25.5081C15.6849 25.3165 15.2291 25.0322 14.6807 24.6657C13.5819 23.9313 12.1213 22.8733 10.6653 21.5759C7.68969 18.9242 5 15.5074 5 11.9631H3ZM16.9203 9.15849C15.4058 5.59457 11.9635 3.9572 8.85702 4.40596C7.2993 4.63099 5.82046 5.38245 4.73395 6.6773C3.64471 7.97541 3 9.75867 3 11.9631H5C5 10.1575 5.52195 8.84965 6.26605 7.96287C7.01287 7.07284 8.03403 6.54561 9.14298 6.38541C11.3699 6.06371 13.9275 7.22966 15.0797 9.94072L16.9203 9.15849ZM27 11.9631C27 15.5074 24.3103 18.9242 21.3347 21.5759C19.8787 22.8733 18.4181 23.9313 17.3193 24.6657C16.7709 25.0322 16.3151 25.3165 15.9982 25.5081C15.8398 25.6039 15.7163 25.6764 15.6335 25.7243C15.5922 25.7483 15.561 25.7661 15.5407 25.7776C15.5306 25.7834 15.5232 25.7875 15.5186 25.7901C15.5163 25.7914 15.5147 25.7923 15.5139 25.7928C15.5134 25.793 15.5132 25.7932 15.5131 25.7932C15.5131 25.7932 15.5131 25.7932 15.5131 25.7932C15.5133 25.7931 15.5134 25.793 16 26.6667C16.4866 27.5403 16.4868 27.5402 16.4871 27.54C16.4873 27.5399 16.4877 27.5397 16.488 27.5395C16.4887 27.5391 16.4895 27.5387 16.4905 27.5381C16.4926 27.537 16.4953 27.5354 16.4988 27.5335C16.5058 27.5295 16.5156 27.524 16.5281 27.5169C16.5533 27.5026 16.5895 27.4819 16.636 27.455C16.729 27.4011 16.8633 27.3222 17.0331 27.2195C17.3724 27.0143 17.8541 26.7138 18.4307 26.3285C19.5819 25.5591 21.1213 24.4449 22.6653 23.069C25.6897 20.3739 29 16.4389 29 11.9631H27ZM16.9203 9.94072C18.0725 7.22966 20.6301 6.06371 22.857 6.38541C23.966 6.54561 24.9871 7.07284 25.734 7.96287C26.478 8.84965 27 10.1575 27 11.9631H29C29 9.75867 28.3553 7.97541 27.266 6.6773C26.1795 5.38245 24.7007 4.63099 23.143 4.40596C20.0365 3.9572 16.5942 5.59457 15.0797 9.15849L16.9203 9.94072Z" fill="#D82752"/>
</svg>
