<svg width="33" height="32" viewBox="0 0 33 32" fill="none" xmlns="http://www.w3.org/2000/svg">
<path d="M21.8337 9.66666C21.2814 9.66666 20.8337 10.1144 20.8337 10.6667C20.8337 11.2189 21.2814 11.6667 21.8337 11.6667V9.66666ZM12.167 17.3333C12.167 16.781 11.7193 16.3333 11.167 16.3333C10.6147 16.3333 10.167 16.781 10.167 17.3333H12.167ZM24.0559 22.9744L24.695 22.2052H24.695L24.0559 22.9744ZM28.5003 26.6667L27.8613 27.4358C28.1596 27.6836 28.5742 27.7367 28.9252 27.5719C29.2762 27.4072 29.5003 27.0544 29.5003 26.6667H28.5003ZM27.167 9.66666H21.8337V11.6667H27.167V9.66666ZM10.167 17.3333V21.3333H12.167V17.3333H10.167ZM12.5003 23.6667H23.2039V21.6667H12.5003V23.6667ZM23.4169 23.7436L27.8613 27.4358L29.1393 25.8975L24.695 22.2052L23.4169 23.7436ZM29.5003 26.6667V12H27.5003V26.6667H29.5003ZM23.2039 23.6667C23.2817 23.6667 23.3571 23.6939 23.4169 23.7436L24.695 22.2052C24.276 21.8572 23.7486 21.6667 23.2039 21.6667V23.6667ZM10.167 21.3333C10.167 22.622 11.2117 23.6667 12.5003 23.6667V21.6667C12.3162 21.6667 12.167 21.5174 12.167 21.3333H10.167ZM27.167 11.6667C27.3511 11.6667 27.5003 11.8159 27.5003 12H29.5003C29.5003 10.7113 28.4557 9.66666 27.167 9.66666V11.6667Z" fill="#3066BE"/>
<path d="M8.94438 17.6411L8.30536 16.8719L8.30536 16.8719L8.94438 17.6411ZM4.5 21.3333H3.5C3.5 21.7211 3.72415 22.0739 4.07516 22.2386C4.42617 22.4033 4.84077 22.3503 5.13902 22.1025L4.5 21.3333ZM5.83333 6.33334H20.5V4.33334H5.83333V6.33334ZM20.8333 6.66668V16H22.8333V6.66668H20.8333ZM20.5 16.3333H9.79641V18.3333H20.5V16.3333ZM8.30536 16.8719L3.86098 20.5642L5.13902 22.1025L9.5834 18.4103L8.30536 16.8719ZM5.5 21.3333V6.66668H3.5V21.3333H5.5ZM9.79641 16.3333C9.25177 16.3333 8.72429 16.5239 8.30536 16.8719L9.5834 18.4103C9.64325 18.3606 9.7186 18.3333 9.79641 18.3333V16.3333ZM20.8333 16C20.8333 16.1841 20.6841 16.3333 20.5 16.3333V18.3333C21.7887 18.3333 22.8333 17.2887 22.8333 16H20.8333ZM20.5 6.33334C20.6841 6.33334 20.8333 6.48258 20.8333 6.66668H22.8333C22.8333 5.37801 21.7887 4.33334 20.5 4.33334V6.33334ZM5.83333 4.33334C4.54467 4.33334 3.5 5.37801 3.5 6.66668H5.5C5.5 6.48258 5.64924 6.33334 5.83333 6.33334V4.33334Z" fill="#3066BE"/>
</svg>
