<svg width="33" height="32" viewBox="0 0 33 32" fill="none" xmlns="http://www.w3.org/2000/svg">
<path d="M13.8337 6.66663H8.50033C7.76395 6.66663 7.16699 7.26358 7.16699 7.99996V24C7.16699 24.7363 7.76395 25.3333 8.50033 25.3333H24.5003C25.2367 25.3333 25.8337 24.7363 25.8337 24V18.6666" stroke="#3066BE" stroke-width="2" stroke-linecap="round" stroke-linejoin="round"/>
<path d="M26.1667 12C26.1667 12.5523 26.6144 13 27.1667 13C27.719 13 28.1667 12.5523 28.1667 12L26.1667 12ZM27.1667 5.33337L28.1667 5.33337C28.1667 5.06816 28.0613 4.8138 27.8738 4.62627C27.6862 4.43873 27.4319 4.33337 27.1667 4.33337V5.33337ZM20.5 4.33337C19.9477 4.33337 19.5 4.78109 19.5 5.33337C19.5 5.88566 19.9477 6.33337 20.5 6.33337V4.33337ZM28.1667 12L28.1667 5.33337L26.1667 5.33337L26.1667 12L28.1667 12ZM27.1667 4.33337H20.5V6.33337H27.1667V4.33337Z" fill="#3066BE"/>
<path d="M17.1259 13.9596C16.7354 14.3501 16.7354 14.9833 17.1259 15.3738C17.5164 15.7643 18.1496 15.7643 18.5401 15.3738L17.1259 13.9596ZM27.8734 6.04048C28.264 5.64996 28.264 5.01679 27.8734 4.62627C27.4829 4.23574 26.8498 4.23574 26.4592 4.62627L27.8734 6.04048ZM18.5401 15.3738L27.8734 6.04048L26.4592 4.62627L17.1259 13.9596L18.5401 15.3738Z" fill="#3066BE"/>
</svg>
