<svg width="33" height="32" viewBox="0 0 33 32" fill="none" xmlns="http://www.w3.org/2000/svg">
<path d="M16.5003 21.3333C19.4458 21.3333 21.8337 18.9455 21.8337 16C21.8337 13.0545 19.4458 10.6667 16.5003 10.6667C13.5548 10.6667 11.167 13.0545 11.167 16C11.167 18.9455 13.5548 21.3333 16.5003 21.3333Z" stroke="#3066BE" stroke-width="2" stroke-linecap="round" stroke-linejoin="round"/>
<path d="M25.9688 10.4349L26.8347 9.93473L26.8347 9.93472L25.9688 10.4349ZM26.0565 10.5867L25.1905 11.0869L25.1905 11.0869L26.0565 10.5867ZM27.0692 11.5832L27.5553 10.7093L27.5553 10.7093L27.0692 11.5832ZM29.1374 12.7338L28.6512 13.6076L28.6512 13.6076L29.1374 12.7338ZM29.8225 13.8959L28.8225 13.8982V13.8982L29.8225 13.8959ZM29.832 18.0983L28.832 18.1006V18.1006L29.832 18.0983ZM29.145 19.2676L28.6603 18.3929L29.145 19.2676ZM27.0718 20.4165L27.5565 21.2912L27.0718 20.4165ZM26.0553 21.4151L25.1894 20.9149L25.1894 20.9149L26.0553 21.4151ZM25.9688 21.5649L26.8347 22.0651L26.8347 22.0651L25.9688 21.5649ZM25.6116 22.9436L24.6117 22.9604V22.9604L25.6116 22.9436ZM25.6515 25.3181L24.6517 25.335L25.6515 25.3181ZM24.9877 26.4937L24.4857 25.6289L24.4857 25.6289L24.9877 26.4937ZM21.3504 28.6048L21.8523 29.4697L21.3504 28.6048ZM19.9948 28.5948L20.5095 27.7374H20.5095L19.9948 28.5948ZM17.96 27.3732L17.4453 28.2306L17.96 27.3732ZM15.0419 27.3716L15.5557 28.2296V28.2296L15.0419 27.3716ZM13.0165 28.5844L12.5028 27.7264H12.5028L13.0165 28.5844ZM11.6658 28.5957L12.1651 27.7293L11.6658 28.5957ZM8.01698 26.493L8.51626 25.6266H8.51626L8.01698 26.493ZM7.34955 25.3153L8.3494 25.3322V25.3322L7.34955 25.3153ZM7.38946 22.9511L6.3896 22.9342L7.38946 22.9511ZM7.03752 21.5814L7.9054 21.0846L7.03752 21.5814ZM6.94482 21.4194L6.07694 21.9162L6.07694 21.9162L6.94482 21.4194ZM5.92686 20.4138L5.44072 21.2877H5.44072L5.92686 20.4138ZM3.86363 19.266L3.37749 20.1399H3.37749L3.86363 19.266ZM3.17849 18.1039L2.1785 18.1062L3.17849 18.1039ZM3.16895 13.9015L4.16895 13.8992L3.16895 13.9015ZM3.85599 12.7322L4.34071 13.6069L4.34071 13.6069L3.85599 12.7322ZM5.92917 11.5833L5.44446 10.7086L5.44446 10.7086L5.92917 11.5833ZM6.9457 10.5847L6.07979 10.0845L6.07979 10.0845L6.9457 10.5847ZM7.03222 10.4349L7.89813 10.9351L7.89814 10.9351L7.03222 10.4349ZM7.38941 9.05621L8.38926 9.03939V9.03939L7.38941 9.05621ZM7.34945 6.68166L6.3496 6.69849L7.34945 6.68166ZM8.01331 5.50605L8.51528 6.37094L8.51528 6.37094L8.01331 5.50605ZM11.6506 3.395L12.1526 4.25988V4.25988L11.6506 3.395ZM13.0062 3.40503L12.4915 4.26239V4.26239L13.0062 3.40503ZM15.041 4.62659L14.5262 5.48395L15.041 4.62659ZM17.959 4.62818L17.4453 3.77022L17.4453 3.77022L17.959 4.62818ZM19.9845 3.4154L19.4708 2.55744V2.55744L19.9845 3.4154ZM21.3352 3.40409L21.8345 2.53765V2.53765L21.3352 3.40409ZM24.9841 5.50677L25.4833 4.64033L24.9841 5.50677ZM25.6515 6.68445L24.6516 6.66762V6.66762L25.6515 6.68445ZM25.6116 9.05621L24.6117 9.03939V9.03939L25.6116 9.05621ZM25.1028 10.9351L25.1905 11.0869L26.9224 10.0865L26.8347 9.93473L25.1028 10.9351ZM26.583 12.4571L28.6512 13.6076L29.6235 11.8599L27.5553 10.7093L26.583 12.4571ZM28.8225 13.8982L28.832 18.1006L30.832 18.0961L30.8225 13.8936L28.8225 13.8982ZM28.6603 18.3929L26.5871 19.5418L27.5565 21.2912L29.6297 20.1423L28.6603 18.3929ZM25.1894 20.9149L25.1028 21.0647L26.8347 22.0651L26.9212 21.9153L25.1894 20.9149ZM24.6117 22.9604L24.6517 25.335L26.6514 25.3013L26.6114 22.9268L24.6117 22.9604ZM24.4857 25.6289L20.8484 27.7399L21.8523 29.4697L25.4897 27.3586L24.4857 25.6289ZM20.5095 27.7374L18.4748 26.5158L17.4453 28.2306L19.4801 29.4521L20.5095 27.7374ZM16.5875 25.9928H16.4119V27.9928H16.5875V25.9928ZM14.5282 26.5137L12.5028 27.7264L13.5302 29.4423L15.5557 28.2296L14.5282 26.5137ZM12.1651 27.7293L8.51626 25.6266L7.51769 27.3595L11.1665 29.4621L12.1651 27.7293ZM8.3494 25.3322L8.38932 22.968L6.3896 22.9342L6.34969 25.2984L8.3494 25.3322ZM7.9054 21.0846L7.81271 20.9227L6.07694 21.9162L6.16964 22.0782L7.9054 21.0846ZM6.41301 19.5399L4.34978 18.3921L3.37749 20.1399L5.44072 21.2877L6.41301 19.5399ZM4.17849 18.1016L4.16895 13.8992L2.16895 13.9037L2.1785 18.1062L4.17849 18.1016ZM4.34071 13.6069L6.41389 12.458L5.44446 10.7086L3.37128 11.8575L4.34071 13.6069ZM7.81162 11.0849L7.89813 10.9351L6.16631 9.93472L6.07979 10.0845L7.81162 11.0849ZM8.38926 9.03939L8.34931 6.66484L6.3496 6.69849L6.38955 9.07303L8.38926 9.03939ZM8.51528 6.37094L12.1526 4.25988L11.1486 2.53011L7.51134 4.64117L8.51528 6.37094ZM12.4915 4.26239L14.5262 5.48395L15.5557 3.76923L13.5209 2.54767L12.4915 4.26239ZM16.4135 6.00696H16.5891V4.00696H16.4135V6.00696ZM18.4728 5.48614L20.4982 4.27336L19.4708 2.55744L17.4453 3.77022L18.4728 5.48614ZM20.8359 4.27053L24.4848 6.3732L25.4833 4.64033L21.8345 2.53765L20.8359 4.27053ZM24.6516 6.66762L24.6117 9.03939L26.6114 9.07303L26.6513 6.70127L24.6516 6.66762ZM24.4848 6.3732C24.5898 6.43371 24.6537 6.54645 24.6516 6.66762L26.6513 6.70127C26.6656 5.85304 26.2184 5.0639 25.4833 4.64033L24.4848 6.3732ZM20.4982 4.27336C20.6019 4.21125 20.7311 4.21017 20.8359 4.27053L21.8345 2.53765C21.1013 2.11515 20.1968 2.12272 19.4708 2.55744L20.4982 4.27336ZM16.5891 6.00696C17.2526 6.00696 17.9036 5.82696 18.4728 5.48614L17.4453 3.77022C17.1866 3.92514 16.8907 4.00696 16.5891 4.00696V6.00696ZM14.5262 5.48395C15.0963 5.82617 15.7486 6.00696 16.4135 6.00696V4.00696C16.1113 4.00696 15.8148 3.92478 15.5557 3.76923L14.5262 5.48395ZM12.1526 4.25988C12.2576 4.19894 12.3874 4.19991 12.4915 4.26239L13.5209 2.54767C12.7923 2.11028 11.8836 2.10355 11.1486 2.53011L12.1526 4.25988ZM8.34931 6.66484C8.34728 6.54404 8.41078 6.43159 8.51528 6.37094L7.51134 4.64117C6.77985 5.06571 6.33537 5.85285 6.3496 6.69849L8.34931 6.66484ZM7.89814 10.9351C8.23068 10.3594 8.40045 9.70413 8.38926 9.03939L6.38955 9.07303C6.39463 9.37519 6.31747 9.67304 6.16631 9.93473L7.89814 10.9351ZM6.41389 12.458C6.99573 12.1355 7.47889 11.6609 7.81162 11.0849L6.07979 10.0845C5.92855 10.3463 5.70893 10.5621 5.44446 10.7086L6.41389 12.458ZM4.16895 13.8992C4.16867 13.7777 4.23448 13.6657 4.34071 13.6069L3.37128 11.8575C2.62765 12.2696 2.16702 13.0536 2.16895 13.9037L4.16895 13.8992ZM4.34978 18.3922C4.24428 18.3335 4.17877 18.2223 4.17849 18.1016L2.1785 18.1062C2.18042 18.9512 2.63905 19.7291 3.37749 20.1399L4.34978 18.3922ZM7.81271 20.9227C7.48082 20.3428 6.99683 19.8647 6.41301 19.5399L5.44072 21.2877C5.70609 21.4353 5.92609 21.6527 6.07694 21.9162L7.81271 20.9227ZM8.38932 22.968C8.40046 22.3081 8.23327 21.6574 7.9054 21.0846L6.16964 22.0782C6.31867 22.3385 6.39467 22.6343 6.3896 22.9342L8.38932 22.968ZM8.51626 25.6266C8.41125 25.5661 8.34736 25.4534 8.3494 25.3322L6.34969 25.2984C6.33537 26.1467 6.78261 26.9359 7.51769 27.3595L8.51626 25.6266ZM12.5028 27.7264C12.3991 27.7885 12.2698 27.7896 12.1651 27.7293L11.1665 29.4621C11.8997 29.8846 12.8042 29.8771 13.5302 29.4423L12.5028 27.7264ZM16.4119 25.9928C15.7484 25.9928 15.0974 26.1728 14.5282 26.5137L15.5557 28.2296C15.8144 28.0746 16.1103 27.9928 16.4119 27.9928V25.9928ZM18.4748 26.5158C17.9047 26.1736 17.2523 25.9928 16.5875 25.9928V27.9928C16.8897 27.9928 17.1862 28.075 17.4453 28.2306L18.4748 26.5158ZM20.8484 27.7399C20.7434 27.8008 20.6136 27.7999 20.5095 27.7374L19.4801 29.4521C20.2086 29.8895 21.1174 29.8962 21.8523 29.4697L20.8484 27.7399ZM24.6517 25.335C24.6537 25.4558 24.5902 25.5682 24.4857 25.6289L25.4897 27.3586C26.2211 26.9341 26.6656 26.1469 26.6514 25.3013L24.6517 25.335ZM25.1029 21.0647C24.7703 21.6404 24.6005 22.2957 24.6117 22.9604L26.6114 22.9268C26.6064 22.6246 26.6835 22.3267 26.8347 22.0651L25.1029 21.0647ZM26.5871 19.5418C26.0053 19.8643 25.5221 20.3389 25.1894 20.9149L26.9212 21.9153C27.0724 21.6535 27.2921 21.4377 27.5565 21.2912L26.5871 19.5418ZM28.832 18.1006C28.8323 18.2221 28.7665 18.3341 28.6603 18.3929L29.6297 20.1423C30.3733 19.7302 30.834 18.9462 30.832 18.0961L28.832 18.1006ZM28.6512 13.6076C28.7567 13.6663 28.8222 13.7775 28.8225 13.8982L30.8225 13.8936C30.8206 13.0486 30.3619 12.2707 29.6235 11.8599L28.6512 13.6076ZM25.1905 11.0869C25.5223 11.6612 26.0035 12.1347 26.583 12.4571L27.5553 10.7093C27.2919 10.5628 27.0731 10.3476 26.9224 10.0865L25.1905 11.0869ZM26.8347 9.93472C26.6835 9.67304 26.6064 9.37519 26.6114 9.07303L24.6117 9.03939C24.6005 9.70413 24.7703 10.3594 25.1029 10.9351L26.8347 9.93472Z" fill="#3066BE"/>
</svg>
