<svg width="33" height="32" viewBox="0 0 33 32" fill="none" xmlns="http://www.w3.org/2000/svg">
<path d="M23.167 21.6368C26.2742 22.369 28.5003 24.3445 28.5003 26.6667" stroke="#3066BE" stroke-width="2" stroke-linecap="round" stroke-linejoin="round"/>
<path d="M4.5 26.6667C4.5 23.7212 8.08172 21.3333 12.5 21.3333C16.9183 21.3333 20.5 23.7212 20.5 26.6667" stroke="#3066BE" stroke-width="2" stroke-linecap="round" stroke-linejoin="round"/>
<path d="M20.5 17.3333C23.4455 17.3333 25.8333 14.9455 25.8333 12C25.8333 9.05447 23.4455 6.66666 20.5 6.66666" stroke="#3066BE" stroke-width="2" stroke-linecap="round" stroke-linejoin="round"/>
<path d="M12.5003 17.3333C15.4458 17.3333 17.8337 14.9455 17.8337 12C17.8337 9.05447 15.4458 6.66666 12.5003 6.66666C9.55481 6.66666 7.16699 9.05447 7.16699 12C7.16699 14.9455 9.55481 17.3333 12.5003 17.3333Z" stroke="#3066BE" stroke-width="2" stroke-linecap="round" stroke-linejoin="round"/>
</svg>
