<svg width="24" height="24" viewBox="0 0 24 24" fill="none" xmlns="http://www.w3.org/2000/svg">
<path d="M9 18.1668V17.1668C8.44772 17.1668 8 17.6146 8 18.1668H9ZM15 18.1668H16C16 17.6146 15.5523 17.1668 15 17.1668V18.1668ZM9 19.1668H15V17.1668H9V19.1668ZM14 18.1668V19.1668H16V18.1668H14ZM10 19.1668V18.1668H8V19.1668H10ZM12 21.1668C10.8954 21.1668 10 20.2714 10 19.1668H8C8 21.376 9.79086 23.1668 12 23.1668V21.1668ZM14 19.1668C14 20.2714 13.1046 21.1668 12 21.1668V23.1668C14.2091 23.1668 16 21.376 16 19.1668H14Z" fill="#3066BE"/>
<path d="M4.29289 15.8739L3.58579 15.1668L3.58579 15.1668L4.29289 15.8739ZM4.80372 15.3631L5.51082 16.0702L5.51082 16.0702L4.80372 15.3631ZM19.1963 15.3631L19.9034 14.656L19.9034 14.656L19.1963 15.3631ZM19.7071 15.8739L20.4142 15.1668L20.4142 15.1668L19.7071 15.8739ZM12 4.16681L12 5.16681L12 4.16681ZM19 17.1668H5V19.1668H19V17.1668ZM5 17.1668V16.581H3V17.1668H5ZM5 16.581L5.51082 16.0702L4.09661 14.656L3.58579 15.1668L5 16.581ZM6 14.8892V11.1668H4V14.8892H6ZM18 11.1668V14.8892H20V11.1668H18ZM18.4892 16.0702L19 16.581L20.4142 15.1668L19.9034 14.656L18.4892 16.0702ZM19 16.581V17.1668H21V16.581H19ZM19 16.581L19 16.581H21C21 16.0506 20.7893 15.5419 20.4142 15.1668L19 16.581ZM18 14.8892C18 15.3322 18.176 15.757 18.4892 16.0702L19.9034 14.656C19.9653 14.7178 20 14.8017 20 14.8892H18ZM20 11.1668C20 6.74852 16.4183 3.1668 12 3.16681L12 5.16681C15.3137 5.1668 18 7.8531 18 11.1668H20ZM6 11.1668C6 7.85311 8.68628 5.16682 12 5.16681L12 3.16681C7.58171 3.16682 4 6.74854 4 11.1668H6ZM5.51082 16.0702C5.82404 15.757 6 15.3322 6 14.8892H4C4 14.8018 4.03475 14.7179 4.09661 14.656L5.51082 16.0702ZM5 16.581L5 16.581L3.58579 15.1668C3.21071 15.5419 3 16.0506 3 16.581H5ZM5 17.1668H3C3 18.2714 3.89543 19.1668 5 19.1668V17.1668ZM19 19.1668C20.1046 19.1668 21 18.2714 21 17.1668H19V19.1668Z" fill="#3066BE"/>
<path d="M18.0186 3.18048C19.3978 4.21979 20.4843 5.59858 21.1724 7.18255" stroke="#3066BE" stroke-width="2" stroke-linecap="round" stroke-linejoin="round"/>
<path d="M12 1.83316C12.0002 2.29294 12.0003 2.9029 12.0005 3.60364" stroke="#3066BE" stroke-width="2" stroke-linecap="round" stroke-linejoin="round"/>
<path d="M5.98197 3.18051C4.60275 4.21983 3.5162 5.59861 2.82812 7.18258" stroke="#3066BE" stroke-width="2" stroke-linecap="round" stroke-linejoin="round"/>
</svg>
