<svg width="33" height="32" viewBox="0 0 33 32" fill="none" xmlns="http://www.w3.org/2000/svg">
<path d="M13.2071 5.95955C12.8166 5.56903 12.1834 5.56903 11.7929 5.95955C11.4024 6.35008 11.4024 6.98324 11.7929 7.37377L13.2071 5.95955ZM21.8333 16L22.5404 16.7071C22.728 16.5196 22.8333 16.2652 22.8333 16C22.8333 15.7348 22.728 15.4804 22.5404 15.2929L21.8333 16ZM11.7929 24.6262C11.4024 25.0167 11.4024 25.6499 11.7929 26.0404C12.1834 26.431 12.8166 26.431 13.2071 26.0404L11.7929 24.6262ZM11.7929 7.37377L21.1262 16.7071L22.5404 15.2929L13.2071 5.95955L11.7929 7.37377ZM21.1262 15.2929L11.7929 24.6262L13.2071 26.0404L22.5404 16.7071L21.1262 15.2929Z" fill="black" fill-opacity="0.35"/>
</svg>
