<svg width="33" height="32" viewBox="0 0 33 32" fill="none" xmlns="http://www.w3.org/2000/svg">
<path d="M19.7929 26.0404C20.1834 26.431 20.8166 26.431 21.2071 26.0404C21.5976 25.6499 21.5976 25.0168 21.2071 24.6262L19.7929 26.0404ZM11.1667 16L10.4596 15.2929C10.272 15.4804 10.1667 15.7348 10.1667 16C10.1667 16.2652 10.272 16.5196 10.4596 16.7071L11.1667 16ZM21.2071 7.37378C21.5976 6.98325 21.5976 6.35009 21.2071 5.95956C20.8166 5.56904 20.1834 5.56904 19.7929 5.95956L21.2071 7.37378ZM21.2071 24.6262L11.8738 15.2929L10.4596 16.7071L19.7929 26.0404L21.2071 24.6262ZM11.8738 16.7071L21.2071 7.37378L19.7929 5.95956L10.4596 15.2929L11.8738 16.7071Z" fill="black" fill-opacity="0.35"/>
</svg>
