<svg width="33" height="32" viewBox="0 0 33 32" fill="none" xmlns="http://www.w3.org/2000/svg">
<path d="M16.5 26.6667L16.0134 27.5403C16.3159 27.7088 16.6841 27.7088 16.9866 27.5403L16.5 26.6667ZM16.5 9.54965L15.5797 9.94076C15.7365 10.3099 16.0989 10.5496 16.5 10.5496C16.9011 10.5496 17.2635 10.3099 17.4203 9.94076L16.5 9.54965ZM3.5 11.9632C3.5 16.439 6.81031 20.374 9.83471 23.0691C11.3787 24.445 12.9181 25.5591 14.0693 26.3285C14.6459 26.7139 15.1276 27.0144 15.4669 27.2196C15.6367 27.3222 15.771 27.4011 15.864 27.455C15.9105 27.482 15.9467 27.5026 15.9719 27.5169C15.9844 27.5241 15.9942 27.5296 16.0012 27.5335C16.0047 27.5355 16.0074 27.537 16.0095 27.5381C16.0105 27.5387 16.0113 27.5392 16.012 27.5396C16.0123 27.5397 16.0127 27.5399 16.0129 27.54C16.0132 27.5402 16.0134 27.5403 16.5 26.6667C16.9866 25.7931 16.9867 25.7932 16.9869 25.7932C16.9869 25.7932 16.9869 25.7933 16.9869 25.7932C16.9868 25.7932 16.9866 25.7931 16.9861 25.7928C16.9853 25.7923 16.9837 25.7915 16.9814 25.7902C16.9768 25.7876 16.9694 25.7834 16.9593 25.7777C16.939 25.7662 16.9078 25.7483 16.8665 25.7244C16.7837 25.6764 16.6602 25.6039 16.5018 25.5081C16.1849 25.3165 15.7291 25.0322 15.1807 24.6657C14.0819 23.9313 12.6213 22.8734 11.1653 21.5759C8.18969 18.9243 5.5 15.5075 5.5 11.9632H3.5ZM17.4203 9.15853C15.9058 5.59461 12.4635 3.95724 9.35702 4.406C7.7993 4.63103 6.32046 5.38249 5.23395 6.67734C4.14471 7.97545 3.5 9.75871 3.5 11.9632H5.5C5.5 10.1575 6.02195 8.84969 6.76605 7.96291C7.51287 7.07288 8.53403 6.54565 9.64298 6.38545C11.8699 6.06375 14.4275 7.2297 15.5797 9.94076L17.4203 9.15853ZM27.5 11.9632C27.5 15.5075 24.8103 18.9243 21.8347 21.5759C20.3787 22.8734 18.9181 23.9313 17.8193 24.6657C17.2709 25.0322 16.8151 25.3165 16.4982 25.5081C16.3398 25.6039 16.2163 25.6764 16.1335 25.7244C16.0922 25.7483 16.061 25.7662 16.0407 25.7777C16.0306 25.7834 16.0232 25.7876 16.0186 25.7902C16.0163 25.7915 16.0147 25.7923 16.0139 25.7928C16.0134 25.7931 16.0132 25.7932 16.0131 25.7932C16.0131 25.7933 16.0131 25.7932 16.0131 25.7932C16.0133 25.7932 16.0134 25.7931 16.5 26.6667C16.9866 27.5403 16.9868 27.5402 16.9871 27.54C16.9873 27.5399 16.9877 27.5397 16.988 27.5396C16.9887 27.5392 16.9895 27.5387 16.9905 27.5381C16.9926 27.537 16.9953 27.5355 16.9988 27.5335C17.0058 27.5296 17.0156 27.5241 17.0281 27.5169C17.0533 27.5026 17.0895 27.482 17.136 27.455C17.229 27.4011 17.3633 27.3222 17.5331 27.2196C17.8724 27.0144 18.3541 26.7139 18.9307 26.3285C20.0819 25.5591 21.6213 24.445 23.1653 23.0691C26.1897 20.374 29.5 16.439 29.5 11.9632H27.5ZM17.4203 9.94076C18.5725 7.2297 21.1301 6.06375 23.357 6.38545C24.466 6.54565 25.4871 7.07288 26.234 7.96291C26.978 8.84969 27.5 10.1575 27.5 11.9632H29.5C29.5 9.75871 28.8553 7.97545 27.766 6.67734C26.6795 5.38249 25.2007 4.63103 23.643 4.406C20.5365 3.95724 17.0942 5.59461 15.5797 9.15853L17.4203 9.94076Z" fill="#3066BE"/>
</svg>
