<svg width="32" height="32" viewBox="0 0 32 32" fill="none" xmlns="http://www.w3.org/2000/svg">
<path d="M22.667 16C22.667 15.2636 23.2639 14.6667 24.0003 14.6667C24.7367 14.6667 25.3337 15.2636 25.3337 16C25.3337 16.7364 24.7367 17.3333 24.0003 17.3333C23.2639 17.3333 22.667 16.7364 22.667 16Z" stroke="black" stroke-opacity="0.35" stroke-width="2" stroke-linecap="round" stroke-linejoin="round"/>
<path d="M14.667 16C14.667 15.2636 15.2639 14.6667 16.0003 14.6667C16.7367 14.6667 17.3337 15.2636 17.3337 16C17.3337 16.7364 16.7367 17.3333 16.0003 17.3333C15.2639 17.3333 14.667 16.7364 14.667 16Z" stroke="black" stroke-opacity="0.35" stroke-width="2" stroke-linecap="round" stroke-linejoin="round"/>
<path d="M6.66699 16C6.66699 15.2636 7.26395 14.6667 8.00033 14.6667C8.73671 14.6667 9.33366 15.2636 9.33366 16C9.33366 16.7364 8.73671 17.3333 8.00033 17.3333C7.26395 17.3333 6.66699 16.7364 6.66699 16Z" stroke="black" stroke-opacity="0.35" stroke-width="2" stroke-linecap="round" stroke-linejoin="round"/>
</svg>
