<svg width="33" height="32" viewBox="0 0 33 32" fill="none" xmlns="http://www.w3.org/2000/svg">
<path d="M16.5 28C23.1274 28 28.5 22.6274 28.5 16C28.5 9.37258 23.1274 4 16.5 4C9.87258 4 4.5 9.37258 4.5 16C4.5 22.6274 9.87258 28 16.5 28Z" stroke="#3066BE" stroke-width="2" stroke-linecap="round" stroke-linejoin="round"/>
<path d="M23.455 25.7764C21.746 23.8677 19.263 22.6667 16.4995 22.6667C13.7359 22.6667 11.2529 23.8677 9.54395 25.7764" stroke="#3066BE" stroke-width="2" stroke-linecap="round" stroke-linejoin="round"/>
<path d="M16.5 18.6667C18.7091 18.6667 20.5 16.8758 20.5 14.6667C20.5 12.4575 18.7091 10.6667 16.5 10.6667C14.2909 10.6667 12.5 12.4575 12.5 14.6667C12.5 16.8758 14.2909 18.6667 16.5 18.6667Z" stroke="#3066BE" stroke-width="2" stroke-linecap="round" stroke-linejoin="round"/>
</svg>
